{
  "accessors": [
    {
      "bufferView": 2,
      "componentType": 5126,
      "count": 6214,
      "max": [
        979.2091064453125,
        978.34130859375,
        1010.1951904296875
      ],
      "min": [
        -979.2091064453125,
        -978.34130859375,
        -1010.1951904296875
      ],
      "type": "VEC3"
    },
    {
      "bufferView": 2,
      "byteOffset": 74568,
      "componentType": 5126,
      "count": 6214,
      "max": [
        0.9995918273925781,
        1.0,
        0.9991385340690613
      ],
      "min": [
        -0.9995918273925781,
        -1.0,
        -0.9991385340690613
      ],
      "type": "VEC3"
    },
    {
      "bufferView": 1,
      "componentType": 5126,
      "count": 6214,
      "max": [
        1.0,
        1.0
      ],
      "min": [
        0.0,
        0.0
      ],
      "type": "VEC2"
    },
    {
      "bufferView": 0,
      "componentType": 5125,
      "count": 35640,
      "type": "SCALAR"
    },
    {
      "bufferView": 2,
      "byteOffset": 149136,
      "componentType": 5126,
      "count": 6214,
      "max": [
        945.6148681640625,
        946.0,
        945.2359008789063
      ],
      "min": [
        -945.6148681640625,
        -946.0,
        -945.2359008789063
      ],
      "type": "VEC3"
    },
    {
      "bufferView": 2,
      "byteOffset": 223704,
      "componentType": 5126,
      "count": 6214,
      "max": [
        0.9995929002761841,
        1.0,
        0.9991922974586487
      ],
      "min": [
        -0.9995929002761841,
        -1.0,
        -0.9991922974586487
      ],
      "type": "VEC3"
    },
    {
      "bufferView": 1,
      "byteOffset": 49712,
      "componentType": 5126,
      "count": 6214,
      "max": [
        1.0,
        1.0
      ],
      "min": [
        0.0,
        0.0
      ],
      "type": "VEC2"
    },
    {
      "bufferView": 1,
      "byteOffset": 99424,
      "componentType": 5126,
      "count": 6214,
      "max": [
        1.0,
        1.0
      ],
      "min": [
        0.0,
        0.0
      ],
      "type": "VEC2"
    },
    {
      "bufferView": 0,
      "byteOffset": 142560,
      "componentType": 5125,
      "count": 35640,
      "type": "SCALAR"
    }
  ],
  "asset": {
    "extras": {
      "author": "Matt kelly (https://sketchfab.com/matt.k)",
      "license": "CC-BY-SA-4.0 (http://creativecommons.org/licenses/by-sa/4.0/)",
      "source": "https://sketchfab.com/3d-models/3d-planet-earth-transparent-bg-ec15cc7c54f44a38b1faa73bb9dfecd3",
      "title": "3D Planet Earth (Transparent BG)"
    },
    "generator": "Sketchfab-12.68.0",
    "version": "2.0"
  },
  "bufferViews": [
    {
      "buffer": 0,
      "byteLength": 285120,
      "name": "floatBufferViews",
      "target": 34963
    },
    {
      "buffer": 0,
      "byteLength": 149136,
      "byteOffset": 285120,
      "byteStride": 8,
      "name": "floatBufferViews",
      "target": 34962
    },
    {
      "buffer": 0,
      "byteLength": 298272,
      "byteOffset": 434256,
      "byteStride": 12,
      "name": "floatBufferViews",
      "target": 34962
    }
  ],
  "buffers": [
    {
      "byteLength": 732528,
      "uri": "scene.bin"
    }
  ],
  "images": [
    {
      "uri": "textures/Mat.1_baseColor.jpeg"
    },
    {
      "uri": "textures/material_baseColor.jpeg"
    },
    {
      "uri": "textures/material_metallicRoughness.png"
    }
  ],
  "materials": [
    {
      "alphaMode": "BLEND",
      "emissiveFactor": [
        1.0,
        1.0,
        1.0
      ],
      "emissiveTexture": {
        "index": 0
      },
      "name": "Mat.1",
      "pbrMetallicRoughness": {
        "baseColorFactor": [
          1.0,
          1.0,
          1.0,
          0.8109756097560975
        ],
        "baseColorTexture": {
          "index": 0
        },
        "metallicFactor": 0.0,
        "roughnessFactor": 0.4695121951219512
      }
    },
    {
      "emissiveFactor": [
        0.0,
        0.05053448759240673,
        0.4595153340887693
      ],
      "name": "material",
      "pbrMetallicRoughness": {
        "baseColorFactor": [
          0.402439024390244,
          0.402439024390244,
          0.402439024390244,
          1.0
        ],
        "baseColorTexture": {
          "index": 1
        },
        "metallicRoughnessTexture": {
          "index": 2
        },
        "roughnessFactor": 0.0
      }
    }
  ],
  "meshes": [
    {
      "name": "Earth_1_Mat.1_0",
      "primitives": [
        {
          "attributes": {
            "NORMAL": 1,
            "POSITION": 0,
            "TEXCOORD_0": 2
          },
          "indices": 3,
          "material": 0,
          "mode": 4
        }
      ]
    },
    {
      "name": "Earth_1_Mat_0",
      "primitives": [
        {
          "attributes": {
            "NORMAL": 5,
            "POSITION": 4,
            "TEXCOORD_0": 6,
            "TEXCOORD_1": 7
          },
          "indices": 8,
          "material": 1,
          "mode": 4
        }
      ]
    }
  ],
  "nodes": [
    {
      "children": [
        1
      ],
      "matrix": [
        0.0009725994314067066,
        0.0,
        0.0,
        0.0,
        0.0,
        2.1596045649701225e-19,
        -0.0009725994314067066,
        0.0,
        0.0,
        0.0009725994314067066,
        2.1596045649701225e-19,
        0.0,
        0.0,
        0.0,
        0.0,
        1.0
      ],
      "name": "Sketchfab_model"
    },
    {
      "children": [
        2
      ],
      "matrix": [
        1.0,
        0.0,
        0.0,
        0.0,
        0.0,
        0.0,
        1.0,
        0.0,
        0.0,
        -1.0,
        0.0,
        0.0,
        0.0,
        0.0,
        0.0,
        1.0
      ],
      "name": "6810927a861348ec90a724b1f2829abb.fbx"
    },
    {
      "children": [
        3
      ],
      "name": "RootNode"
    },
    {
      "children": [
        4,
        5
      ],
      "matrix": [
        0.9990577796737524,
        0.0,
        -0.04339991789568339,
        0.0,
        0.0,
        1.0,
        0.0,
        0.0,
        0.04339991789568339,
        0.0,
        0.9990577796737524,
        0.0,
        0.0,
        0.0,
        0.0,
        1.0
      ],
      "name": "Earth_1"
    },
    {
      "mesh": 0,
      "name": "Earth_1_Mat.1_0"
    },
    {
      "mesh": 1,
      "name": "Earth_1_Mat_0"
    }
  ],
  "samplers": [
    {
      "magFilter": 9728,
      "minFilter": 9728,
      "wrapS": 10497,
      "wrapT": 10497
    },
    {
      "magFilter": 9729,
      "minFilter": 9987,
      "wrapS": 10497,
      "wrapT": 10497
    }
  ],
  "scene": 0,
  "scenes": [
    {
      "name": "Sketchfab_Scene",
      "nodes": [
        0
      ]
    }
  ],
  "textures": [
    {
      "sampler": 0,
      "source": 0
    },
    {
      "sampler": 1,
      "source": 1
    },
    {
      "sampler": 1,
      "source": 2
    }
  ]
}
